# xmcd
#
# Track frame offsets:
#	182
#	22497
#	40337
#	64755
#	84802
#	102070
#	123397
#	147957
#	175607
#
# Disc length: 2689 seconds
#
# Revision: 3
# Processed by: cddbd v1.5.1PL0 Copyright (c) Steve Scherf et al.
# Submitted via: audiograbber 1.83.01
#
DISCID=720a7f09
DTITLE=Wolfgang Dauner - Solo Piano
DYEAR=1900
DGENRE=Jazz
TTITLE0=Wendekreis des Steinbocks
TTITLE1=Die Wiederkehr des Gleichen
TTITLE2=Nachmittag über den Dächern von Stuttgart (für R.)
TTITLE3=In Koma Veritas
TTITLE4=Sendepause der Gefühle
TTITLE5=Don't change me
TTITLE6=Traumläufe
TTITLE7=Pamukkale
TTITLE8=Bindungen - samt den Fügungen des Zufalls, die es dahin gebracht...
EXTD=
EXTT0=
EXTT1=
EXTT2=
EXTT3=
EXTT4=
EXTT5=
EXTT6=
EXTT7=
EXTT8=
PLAYORDER=
